# xmcd CD database file
#
# Track frame offsets:
#	150
#	10640
#	24532
#	34232
#	46732
#	60002
#	78185
#	86957
#	95822
#	110842
#	136945
#	155265
#	175260
#	191892
#	215560
#	231672
#	252585
#
# Disc length: 3602 seconds
#
# Revision: 0
# Processed by: cddbd v1.5.1PL0 Copyright (c) Steve Scherf et al.
# Submitted via: CDex 1.51
#
DISCID=e70e1011
DTITLE=João Bosco - Maxximum
DYEAR=2000
DGENRE=Jazz
TTITLE0=Bala com Bala
TTITLE1=O Mestre-Sala dos Mares
TTITLE2=De Frente pro Crime
TTITLE3=Dois pra Lá, Dois pra Cá
TTITLE4=Kid Cavaquinho
TTITLE5=O Ronco da Cuíca
TTITLE6=Latin Lover
TTITLE7=Bijuterias
TTITLE8=O Bêbado e a Equilibrista
TTITLE9=Si, Si, No, No
TTITLE10=Jade
TTITLE11=Papel Maché (Acústico)
TTITLE12=Se Você Jurar
TTITLE13=Expresso 2222
TTITLE14=Águas de Março
TTITLE15=Mentiras
TTITLE16=No Tabuleiro da Baiana
EXTD=YEAR: 2000
EXTT0=
EXTT1=
EXTT2=
EXTT3=
EXTT4=
EXTT5=
EXTT6=
EXTT7=
EXTT8=
EXTT9=
EXTT10=
EXTT11=
EXTT12=
EXTT13=
EXTT14=
EXTT15=
EXTT16=
PLAYORDER=
